<svg width="19" height="17" viewBox="0 0 19 17" fill="none" xmlns="http://www.w3.org/2000/svg">
<path d="M15.247 16.6624C15.1619 16.7682 15.055 16.8533 14.9338 16.9117C14.8126 16.9701 14.6803 17.0002 14.5464 17C14.4299 17.0007 14.3144 16.9774 14.2069 16.9315C14.0994 16.8856 14.002 16.818 13.9206 16.7328L10.3532 13.0803C10.1864 12.9095 10.0928 12.678 10.0928 12.4367C10.0928 12.1954 10.1864 11.9639 10.3532 11.7931C10.4358 11.7084 10.5338 11.6412 10.6419 11.5953C10.7499 11.5494 10.8657 11.5258 10.9826 11.5258C11.0996 11.5258 11.2154 11.5494 11.3234 11.5953C11.4314 11.6412 11.5295 11.7084 11.612 11.7931L13.6557 13.8963V0.910728C13.6557 0.669192 13.7496 0.437548 13.9166 0.266757C14.0836 0.0959648 14.3102 1.5104e-05 14.5464 1.5104e-05C14.7826 1.5104e-05 15.0091 0.0959648 15.1762 0.266757C15.3432 0.437548 15.437 0.669192 15.437 0.910728V13.8841L17.4819 11.798C17.5645 11.7134 17.6625 11.6464 17.7704 11.6006C17.8783 11.5548 17.9939 11.5313 18.1107 11.5313C18.2275 11.5313 18.3432 11.5548 18.4511 11.6006C18.559 11.6464 18.657 11.7134 18.7395 11.798C18.9063 11.9688 19 12.2002 19 12.4416C19 12.6829 18.9063 12.9144 18.7395 13.0851L15.2458 16.6624H15.247ZM5.15307 0.337586C5.068 0.231804 4.96102 0.146653 4.83986 0.0882762C4.71869 0.0298997 4.58637 -0.000245779 4.45243 1.5104e-05C4.33592 -0.000679864 4.22047 0.0226147 4.11295 0.0685103C4.00543 0.114406 3.90805 0.181964 3.82661 0.267158L0.260472 3.91972C0.0936833 4.09048 0 4.32195 0 4.56329C0 4.80463 0.0936833 5.0361 0.260472 5.20686C0.343002 5.2916 0.441085 5.35884 0.549092 5.40472C0.657099 5.4506 0.772904 5.47421 0.889859 5.47421C1.00681 5.47421 1.12262 5.4506 1.23063 5.40472C1.33863 5.35884 1.43672 5.2916 1.51925 5.20686L3.56179 3.10494V16.0893C3.56179 16.3308 3.65562 16.5625 3.82265 16.7332C3.98968 16.904 4.21622 17 4.45243 17C4.68864 17 4.91518 16.904 5.08221 16.7332C5.24924 16.5625 5.34307 16.3308 5.34307 16.0893V3.11587L7.38799 5.20201C7.4705 5.28656 7.56851 5.35364 7.67641 5.39942C7.7843 5.44519 7.89997 5.46875 8.01678 5.46875C8.1336 5.46875 8.24926 5.44519 8.35716 5.39942C8.46506 5.35364 8.56307 5.28656 8.64558 5.20201C8.81237 5.03125 8.90605 4.79978 8.90605 4.55844C8.90605 4.3171 8.81237 4.08562 8.64558 3.91487L5.15188 0.336372L5.15307 0.337586Z" fill="#0B1181"/>
</svg>
